# xmcd
#
# Track frame offsets: 
#        150
#        16052
#        34405
#        46338
#        66205
#        86141
#        98331
#        114155
#        128116
#        147264
#
# Disc length: 2185 seconds
#
# Revision: 2
# Processed by: cddbd v1.5.2PL0 Copyright (c) Steve Scherf et al.
# Submitted via: ExactAudioCopy v0.99pb4
#
DISCID=7b08870a
DTITLE=А.Новиков - Сергей Есенин
DYEAR=1997
DGENRE=Chanson
TTITLE0=Ты прохладой меня не мучай...
TTITLE1=Пускай ты выпита другим...
TTITLE2=Все живое особой мечтой
TTITLE3=Батум
TTITLE4=Пой же, пой...
TTITLE5=Папиросники
TTITLE6=Годы молодые с забубенной славой...
TTITLE7=Цветы на подоконнике...
TTITLE8=Сыпь, гармоника!
TTITLE9=Снова пьют здесь, дерутся и плачут...
EXTD=
EXTT0=
EXTT1=
EXTT2=
EXTT3=
EXTT4=
EXTT5=
EXTT6=
EXTT7=
EXTT8=
EXTT9=
PLAYORDER=
